<mxfile host="app.diagrams.net" agent="Mozilla/5.0 (Windows NT 10.0; Win64; x64) AppleWebKit/537.36 (KHTML, like Gecko) Chrome/131.0.0.0 Safari/537.36 Edg/131.0.0.0" version="25.0.3">
  <diagram id="C5RBs43oDa-KdzZeNtuy" name="Page-1">
    <mxGraphModel dx="1042" dy="1734" grid="1" gridSize="10" guides="1" tooltips="1" connect="1" arrows="1" fold="1" page="1" pageScale="1" pageWidth="827" pageHeight="1169" math="0" shadow="0">
      <root>
        <mxCell id="WIyWlLk6GJQsqaUBKTNV-0" />
        <mxCell id="WIyWlLk6GJQsqaUBKTNV-1" parent="WIyWlLk6GJQsqaUBKTNV-0" />
        <mxCell id="f0Bi7zttlRM_TwxJVkCO-2" value="" style="edgeStyle=orthogonalEdgeStyle;rounded=0;orthogonalLoop=1;jettySize=auto;html=1;" edge="1" parent="WIyWlLk6GJQsqaUBKTNV-1" source="f0Bi7zttlRM_TwxJVkCO-0" target="f0Bi7zttlRM_TwxJVkCO-1">
          <mxGeometry relative="1" as="geometry" />
        </mxCell>
        <mxCell id="f0Bi7zttlRM_TwxJVkCO-0" value="START" style="ellipse;whiteSpace=wrap;html=1;" vertex="1" parent="WIyWlLk6GJQsqaUBKTNV-1">
          <mxGeometry x="90" y="-410" width="120" height="80" as="geometry" />
        </mxCell>
        <mxCell id="f0Bi7zttlRM_TwxJVkCO-4" value="" style="edgeStyle=orthogonalEdgeStyle;rounded=0;orthogonalLoop=1;jettySize=auto;html=1;" edge="1" parent="WIyWlLk6GJQsqaUBKTNV-1" source="f0Bi7zttlRM_TwxJVkCO-1" target="f0Bi7zttlRM_TwxJVkCO-3">
          <mxGeometry relative="1" as="geometry" />
        </mxCell>
        <mxCell id="f0Bi7zttlRM_TwxJVkCO-1" value="input score" style="shape=parallelogram;perimeter=parallelogramPerimeter;whiteSpace=wrap;html=1;fixedSize=1;" vertex="1" parent="WIyWlLk6GJQsqaUBKTNV-1">
          <mxGeometry x="90" y="-240" width="120" height="60" as="geometry" />
        </mxCell>
        <mxCell id="f0Bi7zttlRM_TwxJVkCO-6" value="yes" style="edgeStyle=orthogonalEdgeStyle;rounded=0;orthogonalLoop=1;jettySize=auto;html=1;strokeColor=default;" edge="1" parent="WIyWlLk6GJQsqaUBKTNV-1" source="f0Bi7zttlRM_TwxJVkCO-3" target="f0Bi7zttlRM_TwxJVkCO-5">
          <mxGeometry relative="1" as="geometry" />
        </mxCell>
        <mxCell id="f0Bi7zttlRM_TwxJVkCO-9" value="no" style="edgeStyle=orthogonalEdgeStyle;rounded=0;orthogonalLoop=1;jettySize=auto;html=1;entryX=0.5;entryY=0;entryDx=0;entryDy=0;" edge="1" parent="WIyWlLk6GJQsqaUBKTNV-1" source="f0Bi7zttlRM_TwxJVkCO-3" target="f0Bi7zttlRM_TwxJVkCO-8">
          <mxGeometry relative="1" as="geometry" />
        </mxCell>
        <mxCell id="f0Bi7zttlRM_TwxJVkCO-3" value="score &amp;lt; 4?" style="rhombus;whiteSpace=wrap;html=1;" vertex="1" parent="WIyWlLk6GJQsqaUBKTNV-1">
          <mxGeometry x="110" y="-110" width="80" height="80" as="geometry" />
        </mxCell>
        <mxCell id="f0Bi7zttlRM_TwxJVkCO-30" style="edgeStyle=orthogonalEdgeStyle;rounded=0;orthogonalLoop=1;jettySize=auto;html=1;entryX=0;entryY=0.5;entryDx=0;entryDy=0;" edge="1" parent="WIyWlLk6GJQsqaUBKTNV-1" source="f0Bi7zttlRM_TwxJVkCO-5" target="f0Bi7zttlRM_TwxJVkCO-23">
          <mxGeometry relative="1" as="geometry">
            <Array as="points">
              <mxPoint x="70" y="530" />
            </Array>
          </mxGeometry>
        </mxCell>
        <mxCell id="f0Bi7zttlRM_TwxJVkCO-5" value="Không đạt" style="whiteSpace=wrap;html=1;" vertex="1" parent="WIyWlLk6GJQsqaUBKTNV-1">
          <mxGeometry x="10" y="10" width="120" height="60" as="geometry" />
        </mxCell>
        <mxCell id="f0Bi7zttlRM_TwxJVkCO-12" value="yes" style="edgeStyle=orthogonalEdgeStyle;rounded=0;orthogonalLoop=1;jettySize=auto;html=1;" edge="1" parent="WIyWlLk6GJQsqaUBKTNV-1" source="f0Bi7zttlRM_TwxJVkCO-8" target="f0Bi7zttlRM_TwxJVkCO-11">
          <mxGeometry relative="1" as="geometry" />
        </mxCell>
        <mxCell id="f0Bi7zttlRM_TwxJVkCO-14" value="no" style="edgeStyle=orthogonalEdgeStyle;rounded=0;orthogonalLoop=1;jettySize=auto;html=1;entryX=0.5;entryY=0;entryDx=0;entryDy=0;" edge="1" parent="WIyWlLk6GJQsqaUBKTNV-1" source="f0Bi7zttlRM_TwxJVkCO-8" target="f0Bi7zttlRM_TwxJVkCO-13">
          <mxGeometry relative="1" as="geometry" />
        </mxCell>
        <mxCell id="f0Bi7zttlRM_TwxJVkCO-8" value="4 &amp;lt;= score &amp;lt;= 6" style="rhombus;whiteSpace=wrap;html=1;" vertex="1" parent="WIyWlLk6GJQsqaUBKTNV-1">
          <mxGeometry x="220" y="-10" width="110" height="80" as="geometry" />
        </mxCell>
        <mxCell id="f0Bi7zttlRM_TwxJVkCO-11" value="Trung bình" style="whiteSpace=wrap;html=1;" vertex="1" parent="WIyWlLk6GJQsqaUBKTNV-1">
          <mxGeometry x="110" y="110" width="120" height="60" as="geometry" />
        </mxCell>
        <mxCell id="f0Bi7zttlRM_TwxJVkCO-16" value="yes" style="edgeStyle=orthogonalEdgeStyle;rounded=0;orthogonalLoop=1;jettySize=auto;html=1;" edge="1" parent="WIyWlLk6GJQsqaUBKTNV-1" source="f0Bi7zttlRM_TwxJVkCO-13" target="f0Bi7zttlRM_TwxJVkCO-15">
          <mxGeometry relative="1" as="geometry" />
        </mxCell>
        <mxCell id="f0Bi7zttlRM_TwxJVkCO-18" value="no" style="edgeStyle=orthogonalEdgeStyle;rounded=0;orthogonalLoop=1;jettySize=auto;html=1;entryX=0.5;entryY=0;entryDx=0;entryDy=0;" edge="1" parent="WIyWlLk6GJQsqaUBKTNV-1" source="f0Bi7zttlRM_TwxJVkCO-13" target="f0Bi7zttlRM_TwxJVkCO-17">
          <mxGeometry relative="1" as="geometry" />
        </mxCell>
        <mxCell id="f0Bi7zttlRM_TwxJVkCO-13" value="6 &amp;lt; score &amp;lt;= 8" style="rhombus;whiteSpace=wrap;html=1;" vertex="1" parent="WIyWlLk6GJQsqaUBKTNV-1">
          <mxGeometry x="330" y="110" width="100" height="80" as="geometry" />
        </mxCell>
        <mxCell id="f0Bi7zttlRM_TwxJVkCO-28" style="edgeStyle=orthogonalEdgeStyle;rounded=0;orthogonalLoop=1;jettySize=auto;html=1;entryX=0;entryY=0.5;entryDx=0;entryDy=0;" edge="1" parent="WIyWlLk6GJQsqaUBKTNV-1" source="f0Bi7zttlRM_TwxJVkCO-15" target="f0Bi7zttlRM_TwxJVkCO-23">
          <mxGeometry relative="1" as="geometry" />
        </mxCell>
        <mxCell id="f0Bi7zttlRM_TwxJVkCO-15" value="Khá" style="whiteSpace=wrap;html=1;" vertex="1" parent="WIyWlLk6GJQsqaUBKTNV-1">
          <mxGeometry x="220" y="230" width="120" height="60" as="geometry" />
        </mxCell>
        <mxCell id="f0Bi7zttlRM_TwxJVkCO-20" value="yes" style="edgeStyle=orthogonalEdgeStyle;rounded=0;orthogonalLoop=1;jettySize=auto;html=1;" edge="1" parent="WIyWlLk6GJQsqaUBKTNV-1" source="f0Bi7zttlRM_TwxJVkCO-17" target="f0Bi7zttlRM_TwxJVkCO-19">
          <mxGeometry relative="1" as="geometry" />
        </mxCell>
        <mxCell id="f0Bi7zttlRM_TwxJVkCO-22" value="no" style="edgeStyle=orthogonalEdgeStyle;rounded=0;orthogonalLoop=1;jettySize=auto;html=1;entryX=0.5;entryY=0;entryDx=0;entryDy=0;" edge="1" parent="WIyWlLk6GJQsqaUBKTNV-1" source="f0Bi7zttlRM_TwxJVkCO-17" target="f0Bi7zttlRM_TwxJVkCO-21">
          <mxGeometry relative="1" as="geometry" />
        </mxCell>
        <mxCell id="f0Bi7zttlRM_TwxJVkCO-17" value="8 &amp;lt; score &amp;lt;= 9" style="rhombus;whiteSpace=wrap;html=1;" vertex="1" parent="WIyWlLk6GJQsqaUBKTNV-1">
          <mxGeometry x="440" y="230" width="120" height="80" as="geometry" />
        </mxCell>
        <mxCell id="f0Bi7zttlRM_TwxJVkCO-19" value="Giỏi" style="whiteSpace=wrap;html=1;" vertex="1" parent="WIyWlLk6GJQsqaUBKTNV-1">
          <mxGeometry x="340" y="350" width="120" height="60" as="geometry" />
        </mxCell>
        <mxCell id="f0Bi7zttlRM_TwxJVkCO-21" value="Xuất xắc" style="rounded=0;whiteSpace=wrap;html=1;" vertex="1" parent="WIyWlLk6GJQsqaUBKTNV-1">
          <mxGeometry x="550" y="350" width="120" height="60" as="geometry" />
        </mxCell>
        <mxCell id="f0Bi7zttlRM_TwxJVkCO-23" value="END" style="ellipse;whiteSpace=wrap;html=1;" vertex="1" parent="WIyWlLk6GJQsqaUBKTNV-1">
          <mxGeometry x="320" y="490" width="120" height="80" as="geometry" />
        </mxCell>
        <mxCell id="f0Bi7zttlRM_TwxJVkCO-26" value="" style="endArrow=classic;html=1;rounded=0;entryX=0.577;entryY=-0.002;entryDx=0;entryDy=0;entryPerimeter=0;exitX=0.41;exitY=0.97;exitDx=0;exitDy=0;exitPerimeter=0;" edge="1" parent="WIyWlLk6GJQsqaUBKTNV-1" source="f0Bi7zttlRM_TwxJVkCO-19" target="f0Bi7zttlRM_TwxJVkCO-23">
          <mxGeometry width="50" height="50" relative="1" as="geometry">
            <mxPoint x="390" y="450" as="sourcePoint" />
            <mxPoint x="440" y="400" as="targetPoint" />
          </mxGeometry>
        </mxCell>
        <mxCell id="f0Bi7zttlRM_TwxJVkCO-27" style="edgeStyle=orthogonalEdgeStyle;rounded=0;orthogonalLoop=1;jettySize=auto;html=1;entryX=1;entryY=0.5;entryDx=0;entryDy=0;" edge="1" parent="WIyWlLk6GJQsqaUBKTNV-1" target="f0Bi7zttlRM_TwxJVkCO-23">
          <mxGeometry relative="1" as="geometry">
            <mxPoint x="587.24" y="410" as="sourcePoint" />
            <mxPoint x="480" y="549.3600000000001" as="targetPoint" />
          </mxGeometry>
        </mxCell>
        <mxCell id="f0Bi7zttlRM_TwxJVkCO-29" style="edgeStyle=orthogonalEdgeStyle;rounded=0;orthogonalLoop=1;jettySize=auto;html=1;entryX=-0.003;entryY=0.608;entryDx=0;entryDy=0;entryPerimeter=0;" edge="1" parent="WIyWlLk6GJQsqaUBKTNV-1" source="f0Bi7zttlRM_TwxJVkCO-11" target="f0Bi7zttlRM_TwxJVkCO-23">
          <mxGeometry relative="1" as="geometry">
            <Array as="points">
              <mxPoint x="170" y="539" />
            </Array>
          </mxGeometry>
        </mxCell>
      </root>
    </mxGraphModel>
  </diagram>
</mxfile>
